<svg xmlns="http://www.w3.org/2000/svg" width="2545.333" height="2545.333" version="1.0" viewBox="0 0 1909 1909"><path d="M0 954.5V1909h1909V0H0v954.5zm1234.1-335.8c7.5 2.4 16.9 11.7 19.4 19.2 2.5 7.7 1.7 18.1-1.9 24.7-3.8 7-601 604.1-607.6 607.5-3.7 2-6.1 2.4-13.5 2.4-10.5 0-15.8-2-22.3-8.6-6.5-6.4-8.6-11.9-8.7-21.9 0-7.4.4-9.2 2.8-13.8 2.2-4.1 64.3-66.8 301.5-304 164.3-164.3 300.3-299.9 302.2-301.4 7.6-5.7 18.3-7.2 28.1-4.1zm65.4 345.1c11.5 5.5 17.9 15.5 17.9 28.2.1 14 12.4.8-166.1 179.1-178.7 178.6-163.5 164.5-177.8 164.3-11.7-.1-21.8-6.3-27.3-16.8-2.3-4.4-2.7-6.3-2.7-14.1 0-7.5.4-9.8 2.4-13.5 1.6-3.2 49.6-51.9 161.4-163.8 87.6-87.7 160.8-160.4 162.8-161.7 4.9-3.2 9.2-4.3 16.9-4.4 5.2-.1 7.7.5 12.5 2.7z"/></svg>